<svg width="14" height="14" viewBox="0 0 14 14" fill="none" xmlns="http://www.w3.org/2000/svg">
<path fill-rule="evenodd" clip-rule="evenodd" d="M3.46666 0.600098C3.02483 0.600098 2.66666 0.95827 2.66666 1.4001V2.2001H1.86666C0.983007 2.2001 0.266663 2.91644 0.266663 3.8001V11.8001C0.266663 12.6838 0.983007 13.4001 1.86666 13.4001H11.4667C12.3503 13.4001 13.0667 12.6838 13.0667 11.8001V3.8001C13.0667 2.91644 12.3503 2.2001 11.4667 2.2001H10.6667V1.4001C10.6667 0.95827 10.3085 0.600098 9.86666 0.600098C9.42483 0.600098 9.06666 0.95827 9.06666 1.4001V2.2001H4.26666V1.4001C4.26666 0.95827 3.90849 0.600098 3.46666 0.600098ZM3.46666 4.6001C3.02483 4.6001 2.66666 4.95827 2.66666 5.4001C2.66666 5.84193 3.02483 6.2001 3.46666 6.2001H9.86666C10.3085 6.2001 10.6667 5.84193 10.6667 5.4001C10.6667 4.95827 10.3085 4.6001 9.86666 4.6001H3.46666Z" fill="white" fill-opacity="0.7"/>
</svg>
