<svg width="17" height="16" viewBox="0 0 17 16" fill="none" xmlns="http://www.w3.org/2000/svg">
<path fill-rule="evenodd" clip-rule="evenodd" d="M8.66663 2.5C5.62906 2.5 3.16663 4.96243 3.16663 8C3.16663 11.0376 5.62906 13.5 8.66663 13.5C11.7042 13.5 14.1666 11.0376 14.1666 8C14.1666 4.96243 11.7042 2.5 8.66663 2.5ZM2.16663 8C2.16663 4.41015 5.07678 1.5 8.66663 1.5C12.2565 1.5 15.1666 4.41015 15.1666 8C15.1666 11.5899 12.2565 14.5 8.66663 14.5C5.07678 14.5 2.16663 11.5899 2.16663 8ZM8.66663 4.83333C8.94277 4.83333 9.16663 5.05719 9.16663 5.33333V7.79289L11.0202 9.64645C11.2154 9.84171 11.2154 10.1583 11.0202 10.3536C10.8249 10.5488 10.5083 10.5488 10.3131 10.3536L8.31307 8.35355C8.2193 8.25979 8.16663 8.13261 8.16663 8V5.33333C8.16663 5.05719 8.39048 4.83333 8.66663 4.83333Z" fill="white" fill-opacity="0.7"/>
</svg>
