<?xml version="1.0" standalone="no"?>
<!DOCTYPE svg PUBLIC "-//W3C//DTD SVG 20010904//EN"
 "http://www.w3.org/TR/2001/REC-SVG-20010904/DTD/svg10.dtd">
<svg version="1.0" xmlns="http://www.w3.org/2000/svg"
 width="58.000000pt" height="77.000000pt" viewBox="0 0 58.000000 77.000000"
 preserveAspectRatio="xMidYMid meet">

<g transform="translate(0.000000,77.000000) scale(0.100000,-0.100000)"
fill="#000000" stroke="none">
<path d="M152 670 c-11 -17 -10 -20 8 -20 21 0 25 7 12 27 -6 9 -11 7 -20 -7z"/>
<path d="M210 672 c0 -21 83 -32 95 -12 4 6 -6 10 -22 10 -15 0 -38 3 -50 6
-13 4 -23 2 -23 -4z"/>
<path d="M110 624 c0 -12 7 -14 31 -9 20 5 29 4 25 -3 -3 -6 2 -8 13 -5 22 6
38 -14 23 -29 -8 -8 -15 -8 -24 0 -23 19 -39 0 -25 -28 7 -14 14 -38 15 -53 2
-15 15 -39 29 -53 14 -15 22 -31 19 -40 -3 -9 -6 -20 -6 -25 0 -20 -18 -7 -33
22 -15 31 -15 30 -15 -49 -1 -45 -6 -90 -12 -102 -9 -16 -8 -20 5 -20 9 0 15
-9 15 -24 0 -12 5 -37 11 -54 9 -26 8 -35 -7 -49 -17 -17 -17 -18 0 -21 25 -5
26 -3 30 69 3 47 0 69 -11 81 -14 15 -13 20 6 47 l22 30 30 -32 c29 -30 30
-31 23 -7 -7 24 -30 49 -48 50 -14 0 4 73 24 95 13 15 16 26 9 43 -4 12 -5 22
-1 22 5 0 14 16 22 35 8 19 19 35 26 35 18 0 30 -23 16 -28 -19 -6 -14 -22 8
-22 24 0 24 3 4 41 -19 39 -12 46 29 31 45 -16 66 -15 73 3 4 9 20 15 38 16
30 1 30 1 6 9 -38 12 -62 12 -54 -1 5 -9 -9 -10 -51 -4 -69 8 -87 14 -79 26 7
12 -20 11 -32 -1 -7 -7 -31 -6 -75 5 -80 18 -79 18 -79 -1z m177 -30 c-3 -3
-12 -4 -19 -1 -8 3 -5 6 6 6 11 1 17 -2 13 -5z"/>
<path d="M265 90 c3 -5 11 -10 16 -10 6 0 7 5 4 10 -3 6 -11 10 -16 10 -6 0
-7 -4 -4 -10z"/>
</g>
</svg>
