<svg width="24" height="24" viewBox="0 0 24 24" fill="none" xmlns="http://www.w3.org/2000/svg">
<path fill-rule="evenodd" clip-rule="evenodd" d="M2.25 5.03568C2.25 4.26643 2.8736 3.64282 3.64286 3.64282H20.3571C21.1264 3.64282 21.75 4.26643 21.75 5.03568C21.75 5.80493 21.1264 6.42854 20.3571 6.42854H3.64286C2.8736 6.42854 2.25 5.80493 2.25 5.03568Z" fill="#D89F0E"/>
<path fill-rule="evenodd" clip-rule="evenodd" d="M2.25 12C2.25 11.2307 2.8736 10.6071 3.64286 10.6071H20.3571C21.1264 10.6071 21.75 11.2307 21.75 12C21.75 12.7692 21.1264 13.3928 20.3571 13.3928H3.64286C2.8736 13.3928 2.25 12.7692 2.25 12Z" fill="#D89F0E"/>
<path fill-rule="evenodd" clip-rule="evenodd" d="M10.6071 18.9643C10.6071 18.195 11.2307 17.5714 12 17.5714H20.3571C21.1264 17.5714 21.75 18.195 21.75 18.9643C21.75 19.7335 21.1264 20.3571 20.3571 20.3571H12C11.2307 20.3571 10.6071 19.7335 10.6071 18.9643Z" fill="#D89F0E"/>
</svg>
