<svg width="25" height="24" viewBox="0 0 25 24" fill="none" xmlns="http://www.w3.org/2000/svg">
<path d="M11.5996 21V16.74C11.1296 16.91 10.6296 17 10.0996 17C7.59961 17 5.59961 15 5.59961 12.5C5.59961 11.23 6.09961 10.09 6.95961 9.27C6.72961 8.73 6.59961 8.13 6.59961 7.5C6.59961 5 8.59961 3 11.0996 3C12.6596 3 14.0396 3.8 14.8496 5C14.9296 5 15.0096 5 15.0996 5C15.8219 5 16.5371 5.14226 17.2044 5.41866C17.8717 5.69506 18.478 6.10019 18.9887 6.61091C19.4994 7.12164 19.9045 7.72795 20.1809 8.39524C20.4573 9.06253 20.5996 9.77773 20.5996 10.5C20.5996 11.2223 20.4573 11.9375 20.1809 12.6048C19.9045 13.272 19.4994 13.8784 18.9887 14.3891C18.478 14.8998 17.8717 15.3049 17.2044 15.5813C16.5371 15.8577 15.8219 16 15.0996 16C14.5996 16 14.0996 15.93 13.5996 15.79V21H11.5996Z" fill="#FCCA39"/>
</svg>
