<svg width="13" height="16" viewBox="0 0 13 16" fill="none" xmlns="http://www.w3.org/2000/svg">
<path d="M5.16699 15.5V11.95C4.77533 12.0917 4.35866 12.1667 3.91699 12.1667C1.83366 12.1667 0.166992 10.5 0.166992 8.41667C0.166992 7.35833 0.583659 6.40833 1.30033 5.725C1.10866 5.275 1.00033 4.775 1.00033 4.25C1.00033 2.16667 2.66699 0.5 4.75033 0.5C6.05033 0.5 7.20033 1.16667 7.87533 2.16667C7.94199 2.16667 8.00866 2.16667 8.08366 2.16667C8.68555 2.16667 9.28155 2.28522 9.83762 2.51555C10.3937 2.74589 10.899 3.08349 11.3246 3.50909C11.7502 3.9347 12.0878 4.43996 12.3181 4.99603C12.5484 5.55211 12.667 6.14811 12.667 6.75C12.667 7.35189 12.5484 7.94789 12.3181 8.50397C12.0878 9.06004 11.7502 9.5653 11.3246 9.99091C10.899 10.4165 10.3937 10.7541 9.83762 10.9844C9.28155 11.2148 8.68555 11.3333 8.08366 11.3333C7.66699 11.3333 7.25033 11.275 6.83366 11.1583V15.5H5.16699Z" fill="#D89F0E"/>
</svg>
